# xmcd
#
# Track frame offsets:
#	182
#	12520
#	28570
#	42895
#	53320
#	67945
#	79345
#	91270
#	106045
#	119920
#	133570
#	147895
#	157720
#	171895
#	182170
#	194320
#	210820
#	221320
#	235795
#	247345
#	260545
#
# Disc length: 3778
#
# Revision: 1
# Processed by: cddbd v1.5.1PL0 Copyright (c) Steve Scherf et al.
# Submitted via: ExactAudioCopy v0.90b4
# Normalized: r0:DSETVAR1
#
DISCID=160ec015
DTITLE=Various Artist - 70's Country Pop
DYEAR=1995
DGENRE=Country
TTITLE0=Kenny Rogers and The First Edition - Ruben James
TTITLE1=John Phillips - Mississippi
TTITLE2=Mike Nesmith and The First National Band - Silver Moon
TTITLE3=Jerry Reed - Amos Moses
TTITLE4=Sonny and Cher - A Cowboy's Work Is Never Done
TTITLE5=Donna Fargo - The Happiest Girl In The Whole USA
TTITLE6=Loretta Lynn - One's On The Way
TTITLE7=Jeannie Pruett - Satin Sheets
TTITLE8=Don Gibson - Touch The Morning
TTITLE9=Conway Twitty - You've Never Been This Far Before
TTITLE10=Don Williams - Amanda
TTITLE11=Sue Thompson - Candy and Roses
TTITLE12=Jimmy Buffett - Come Monday
TTITLE13=Billy 'Crash' Craddock - Rub It In
TTITLE14=Loretta Lynn and Conway Twitty - As Soon As I Hang Up The Phone
TTITLE15=Cal Smith - Country Bumpkin
TTITLE16=Dolly Parton - Love Is Like A Butterfly
TTITLE17=The Pointer Sisters - Fairytale
TTITLE18=Diana Trask - Oh Boy
TTITLE19=Freddy Fender - Wasted Days and Wasted Nights
TTITLE20=Red Sovine - Teddy Bear
EXTD=
EXTT0=
EXTT1=
EXTT2=
EXTT3=
EXTT4=
EXTT5=
EXTT6=
EXTT7=
EXTT8=
EXTT9=
EXTT10=
EXTT11=
EXTT12=
EXTT13=
EXTT14=
EXTT15=
EXTT16=
EXTT17=
EXTT18=
EXTT19=
EXTT20=
PLAYORDER=
